<svg width="22" height="22" viewBox="0 0 22 22" fill="none" xmlns="http://www.w3.org/2000/svg">
<path d="M11 5C12.6302 5 12.8336 5.006 13.4732 5.036C14.1122 5.066 14.5472 5.1662 14.93 5.315C15.326 5.4674 15.6596 5.6738 15.9932 6.0068C16.2983 6.30674 16.5344 6.66955 16.685 7.07C16.8332 7.4522 16.934 7.8878 16.964 8.5268C16.9922 9.1664 17 9.3698 17 11C17 12.6302 16.994 12.8336 16.964 13.4732C16.934 14.1122 16.8332 14.5472 16.685 14.93C16.5348 15.3307 16.2987 15.6936 15.9932 15.9932C15.6932 16.2982 15.3304 16.5343 14.93 16.685C14.5478 16.8332 14.1122 16.934 13.4732 16.964C12.8336 16.9922 12.6302 17 11 17C9.3698 17 9.1664 16.994 8.5268 16.964C7.8878 16.934 7.4528 16.8332 7.07 16.685C6.6694 16.5347 6.30652 16.2986 6.0068 15.9932C5.70164 15.6933 5.46556 15.3305 5.315 14.93C5.1662 14.5478 5.066 14.1122 5.036 13.4732C5.0078 12.8336 5 12.6302 5 11C5 9.3698 5.006 9.1664 5.036 8.5268C5.066 7.8872 5.1662 7.4528 5.315 7.07C5.46514 6.66931 5.70128 6.30639 6.0068 6.0068C6.3066 5.70154 6.66946 5.46544 7.07 5.315C7.4528 5.1662 7.8872 5.066 8.5268 5.036C9.1664 5.0078 9.3698 5 11 5ZM11 8C10.2044 8 9.44129 8.31607 8.87868 8.87868C8.31607 9.44129 8 10.2044 8 11C8 11.7956 8.31607 12.5587 8.87868 13.1213C9.44129 13.6839 10.2044 14 11 14C11.7956 14 12.5587 13.6839 13.1213 13.1213C13.6839 12.5587 14 11.7956 14 11C14 10.2044 13.6839 9.44129 13.1213 8.87868C12.5587 8.31607 11.7956 8 11 8ZM14.9 7.85C14.9 7.65109 14.821 7.46032 14.6803 7.31967C14.5397 7.17902 14.3489 7.1 14.15 7.1C13.9511 7.1 13.7603 7.17902 13.6197 7.31967C13.479 7.46032 13.4 7.65109 13.4 7.85C13.4 8.04891 13.479 8.23968 13.6197 8.38033C13.7603 8.52098 13.9511 8.6 14.15 8.6C14.3489 8.6 14.5397 8.52098 14.6803 8.38033C14.821 8.23968 14.9 8.04891 14.9 7.85Z" fill="white"/>
<circle cx="11" cy="11" r="10.75" stroke="white" stroke-opacity="0.6" stroke-width="0.5"/>
</svg>
