<svg width="22" height="22" viewBox="0 0 22 22" fill="none" xmlns="http://www.w3.org/2000/svg">
<circle cx="11" cy="11" r="10.75" stroke="white" stroke-opacity="0.6" stroke-width="0.5"/>
<path d="M16.9994 8.0684C16.55 8.25178 16.0734 8.37221 15.5854 8.42572C16.0997 8.14194 16.4847 7.69534 16.6686 7.16913C16.1858 7.43413 15.6566 7.61985 15.105 7.72031C14.7345 7.35462 14.2433 7.11209 13.708 7.03043C13.1726 6.94877 12.623 7.03255 12.1446 7.26875C11.6662 7.50495 11.2857 7.88034 11.0625 8.33655C10.8392 8.79276 10.7856 9.30423 10.9099 9.79146C9.93099 9.74619 8.97331 9.51153 8.09907 9.1027C7.22483 8.69387 6.45357 8.12001 5.83536 7.41838C5.61654 7.76509 5.50154 8.15921 5.50216 8.56039C5.50216 9.34779 5.93662 10.0434 6.59714 10.4507C6.20625 10.4394 5.82396 10.342 5.48214 10.1667V10.1949C5.48226 10.7193 5.67899 11.2276 6.03896 11.6335C6.39894 12.0394 6.90001 12.3179 7.45722 12.4219C7.09436 12.5126 6.71388 12.526 6.34458 12.461C6.50169 12.9124 6.80789 13.3072 7.22032 13.5901C7.63276 13.8729 8.13077 14.0297 8.64462 14.0385C8.13392 14.4085 7.54916 14.682 6.92379 14.8434C6.29842 15.0048 5.6447 15.0509 5 14.9791C6.12541 15.6467 7.4355 16.0011 8.77355 16C13.3024 16 15.779 12.5392 15.779 9.53786C15.779 9.44011 15.7761 9.34128 15.7714 9.24462C16.2535 8.92323 16.6695 8.5251 17 8.06894L16.9994 8.0684Z" fill="white"/>
</svg>
