<svg width="20" height="20" viewBox="0 0 20 20" fill="none" xmlns="http://www.w3.org/2000/svg">
<path d="M10.4558 16.1572L14.5566 12.0565C15.3675 11.2455 15.9197 10.2122 16.1435 9.08731C16.3672 7.96243 16.2523 6.79648 15.8134 5.73688C15.3744 4.67729 14.6312 3.77165 13.6775 3.13447C12.7239 2.4973 11.6028 2.15721 10.4558 2.15721C9.30894 2.15721 8.18779 2.4973 7.23416 3.13447C6.28054 3.77165 5.53727 4.67729 5.09834 5.73688C4.65941 6.79648 4.54453 7.96243 4.76824 9.08731C4.99195 10.2122 5.54419 11.2455 6.35513 12.0565L10.4558 16.1572ZM10.4558 18.5L5.18374 13.2279C4.14103 12.1852 3.43094 10.8567 3.14326 9.41037C2.85558 7.96408 3.00324 6.46497 3.56755 5.10259C4.13187 3.74022 5.08751 2.57578 6.31361 1.75653C7.53972 0.937275 8.98123 0.5 10.4558 0.5C11.9305 0.5 13.372 0.937275 14.5981 1.75653C15.8242 2.57578 16.7798 3.74022 17.3441 5.10259C17.9085 6.46497 18.0561 7.96408 17.7684 9.41037C17.4808 10.8567 16.7707 12.1852 15.728 13.2279L10.4558 18.5V18.5ZM10.4558 9.61263C10.8953 9.61263 11.3167 9.43807 11.6274 9.12735C11.9381 8.81663 12.1127 8.3952 12.1127 7.95578C12.1127 7.51635 11.9381 7.09493 11.6274 6.78421C11.3167 6.47349 10.8953 6.29893 10.4558 6.29893C10.0164 6.29893 9.595 6.47349 9.28428 6.78421C8.97355 7.09493 8.79899 7.51635 8.79899 7.95578C8.79899 8.3952 8.97355 8.81663 9.28428 9.12735C9.595 9.43807 10.0164 9.61263 10.4558 9.61263ZM10.4558 11.2695C9.577 11.2695 8.73414 10.9204 8.1127 10.2989C7.49126 9.67748 7.14214 8.83463 7.14214 7.95578C7.14214 7.07693 7.49126 6.23407 8.1127 5.61263C8.73414 4.99119 9.577 4.64207 10.4558 4.64207C11.3347 4.64207 12.1776 4.99119 12.799 5.61263C13.4204 6.23407 13.7696 7.07693 13.7696 7.95578C13.7696 8.83463 13.4204 9.67748 12.799 10.2989C12.1776 10.9204 11.3347 11.2695 10.4558 11.2695Z" fill="white"/>
</svg>
