<?xml version="1.0" encoding="utf-8"?>
<!-- Generator: Adobe Illustrator 25.2.3, SVG Export Plug-In . SVG Version: 6.00 Build 0)  -->
<svg version="1.1" id="レイヤー_1" xmlns="http://www.w3.org/2000/svg" xmlns:xlink="http://www.w3.org/1999/xlink" x="0px"
	 y="0px" viewBox="0 0 11 11" style="enable-background:new 0 0 11 11;" xml:space="preserve">
<style type="text/css">
	.st0{fill:#FFFFFF;}
</style>
<path class="st0" d="M6.9,7.6L4.7,6.3C4.4,6.5,4.2,6.7,3.9,6.7C3.6,6.8,3.2,6.8,3,6.7C2.7,6.5,2.4,6.3,2.3,6.1C2.1,5.8,2,5.5,2,5.2
	c0-0.3,0.1-0.6,0.3-0.9S2.7,3.9,3,3.8c0.3-0.1,0.6-0.1,0.9-0.1c0.3,0.1,0.6,0.2,0.8,0.4l2.3-1.2c-0.1-0.4,0-0.7,0.2-1.1
	c0.2-0.3,0.5-0.6,0.8-0.7C8.3,1,8.6,1,9,1.1c0.3,0.1,0.6,0.4,0.8,0.7C10,2.1,10,2.5,10,2.9C9.9,3.3,9.7,3.6,9.4,3.8
	C9.1,4,8.7,4.1,8.3,4.1c-0.4,0-0.7-0.2-1-0.4L5.1,4.9c0,0.2,0,0.4,0,0.6l2.3,1.2c0.3-0.3,0.6-0.4,1-0.4c0.4,0,0.7,0.1,1,0.3
	C9.7,6.9,9.9,7.2,10,7.6c0.1,0.4,0,0.7-0.2,1.1C9.6,9,9.3,9.2,9,9.3c-0.3,0.1-0.7,0.1-1.1,0C7.6,9.2,7.3,9,7.1,8.6
	C6.9,8.3,6.8,7.9,6.9,7.6z"/>
</svg>
