<svg width="20" height="21" viewBox="0 0 20 21" fill="none" xmlns="http://www.w3.org/2000/svg">
<path d="M10 19C5.0293 19 1 14.9707 1 10C1 5.0293 5.0293 1 10 1C14.9707 1 19 5.0293 19 10C19 14.9707 14.9707 19 10 19ZM7.939 16.9003C7.05107 15.0169 6.53668 12.9792 6.4243 10.9H2.8558C3.03093 12.285 3.60453 13.5893 4.50691 14.6545C5.40929 15.7197 6.60161 16.4999 7.939 16.9003ZM8.227 10.9C8.3629 13.0951 8.9902 15.157 10 16.9768C11.0371 15.1089 11.6429 13.0325 11.773 10.9H8.227ZM17.1442 10.9H13.5757C13.4633 12.9792 12.9489 15.0169 12.061 16.9003C13.3984 16.4999 14.5907 15.7197 15.4931 14.6545C16.3955 13.5893 16.9691 12.285 17.1442 10.9ZM2.8558 9.1H6.4243C6.53668 7.02081 7.05107 4.98312 7.939 3.0997C6.60161 3.50009 5.40929 4.28028 4.50691 5.34547C3.60453 6.41065 3.03093 7.71499 2.8558 9.1ZM8.2279 9.1H11.7721C11.6423 6.96754 11.0368 4.89118 10 3.0232C8.96291 4.8911 8.3571 6.96747 8.227 9.1H8.2279ZM12.061 3.0997C12.9489 4.98312 13.4633 7.02081 13.5757 9.1H17.1442C16.9691 7.71499 16.3955 6.41065 15.4931 5.34547C14.5907 4.28028 13.3984 3.50009 12.061 3.0997Z" fill="#1B1919"/>
</svg>
