<svg width="20" height="21" viewBox="0 0 20 21" fill="none" xmlns="http://www.w3.org/2000/svg">
<path d="M10.4558 16.6572L14.5566 12.5565C15.3675 11.7455 15.9197 10.7122 16.1435 9.58731C16.3672 8.46243 16.2523 7.29648 15.8134 6.23688C15.3744 5.17729 14.6312 4.27165 13.6775 3.63447C12.7239 2.9973 11.6028 2.65721 10.4558 2.65721C9.30894 2.65721 8.18779 2.9973 7.23416 3.63447C6.28054 4.27165 5.53727 5.17729 5.09834 6.23688C4.65941 7.29648 4.54453 8.46243 4.76824 9.58731C4.99195 10.7122 5.54419 11.7455 6.35513 12.5565L10.4558 16.6572ZM10.4558 19L5.18374 13.7279C4.14103 12.6852 3.43094 11.3567 3.14326 9.91037C2.85558 8.46408 3.00324 6.96497 3.56755 5.60259C4.13187 4.24022 5.08751 3.07578 6.31361 2.25653C7.53972 1.43728 8.98123 1 10.4558 1C11.9305 1 13.372 1.43728 14.5981 2.25653C15.8242 3.07578 16.7798 4.24022 17.3441 5.60259C17.9085 6.96497 18.0561 8.46408 17.7684 9.91037C17.4808 11.3567 16.7707 12.6852 15.728 13.7279L10.4558 19ZM10.4558 10.1126C10.8953 10.1126 11.3167 9.93807 11.6274 9.62735C11.9381 9.31663 12.1127 8.8952 12.1127 8.45578C12.1127 8.01635 11.9381 7.59493 11.6274 7.28421C11.3167 6.97349 10.8953 6.79893 10.4558 6.79893C10.0164 6.79893 9.595 6.97349 9.28428 7.28421C8.97355 7.59493 8.79899 8.01635 8.79899 8.45578C8.79899 8.8952 8.97355 9.31663 9.28428 9.62735C9.595 9.93807 10.0164 10.1126 10.4558 10.1126ZM10.4558 11.7695C9.577 11.7695 8.73414 11.4204 8.1127 10.7989C7.49126 10.1775 7.14214 9.33463 7.14214 8.45578C7.14214 7.57693 7.49126 6.73407 8.1127 6.11263C8.73414 5.49119 9.577 5.14207 10.4558 5.14207C11.3347 5.14207 12.1776 5.49119 12.799 6.11263C13.4204 6.73407 13.7696 7.57693 13.7696 8.45578C13.7696 9.33463 13.4204 10.1775 12.799 10.7989C12.1776 11.4204 11.3347 11.7695 10.4558 11.7695Z" fill="#1B1919"/>
</svg>
