<svg width="11" height="11" viewBox="0 0 11 11" fill="none" xmlns="http://www.w3.org/2000/svg">
<path d="M6.92286 7.56558L4.6516 6.32684C4.43358 6.54325 4.15637 6.69027 3.85492 6.74936C3.55347 6.80846 3.24127 6.77698 2.95768 6.6589C2.67409 6.54082 2.43181 6.34142 2.26138 6.08584C2.09095 5.83027 2 5.52995 2 5.22276C2 4.91557 2.09095 4.61526 2.26138 4.35968C2.43181 4.1041 2.67409 3.90471 2.95768 3.78663C3.24127 3.66854 3.55347 3.63707 3.85492 3.69616C4.15637 3.75526 4.43358 3.90228 4.6516 4.11869L6.92286 2.87994C6.84496 2.51447 6.90122 2.13317 7.08136 1.80576C7.26149 1.47836 7.55345 1.22674 7.90386 1.09691C8.25426 0.96708 8.63969 0.967719 8.98966 1.09871C9.33964 1.2297 9.63076 1.48229 9.80981 1.81029C9.98885 2.13829 10.0438 2.51978 9.96474 2.88499C9.88563 3.2502 9.6777 3.57474 9.37898 3.79925C9.08026 4.02376 8.7107 4.13324 8.33789 4.10767C7.96508 4.0821 7.61394 3.92319 7.34867 3.65999L5.07741 4.89874C5.12271 5.11238 5.12271 5.33315 5.07741 5.54678L7.34867 6.78553C7.61394 6.52234 7.96508 6.36343 8.33789 6.33786C8.7107 6.31229 9.08026 6.42177 9.37898 6.64628C9.6777 6.87079 9.88563 7.19532 9.96474 7.56054C10.0438 7.92575 9.98885 8.30724 9.80981 8.63524C9.63076 8.96323 9.33964 9.21582 8.98966 9.34682C8.63969 9.47781 8.25426 9.47845 7.90386 9.34862C7.55345 9.21879 7.26149 8.96716 7.08136 8.63976C6.90122 8.31236 6.84496 7.93106 6.92286 7.56558Z" fill="black"/>
</svg>
