<svg width="20" height="20" viewBox="0 0 20 20" fill="none" xmlns="http://www.w3.org/2000/svg">
<path d="M10 18.5C5.0293 18.5 1 14.4707 1 9.5C1 4.5293 5.0293 0.5 10 0.5C14.9707 0.5 19 4.5293 19 9.5C19 14.4707 14.9707 18.5 10 18.5ZM7.939 16.4003C7.05107 14.5169 6.53668 12.4792 6.4243 10.4H2.8558C3.03093 11.785 3.60453 13.0893 4.50691 14.1545C5.40929 15.2197 6.60161 15.9999 7.939 16.4003V16.4003ZM8.227 10.4C8.3629 12.5951 8.9902 14.657 10 16.4768C11.0371 14.6089 11.6429 12.5325 11.773 10.4H8.227V10.4ZM17.1442 10.4H13.5757C13.4633 12.4792 12.9489 14.5169 12.061 16.4003C13.3984 15.9999 14.5907 15.2197 15.4931 14.1545C16.3955 13.0893 16.9691 11.785 17.1442 10.4V10.4ZM2.8558 8.6H6.4243C6.53668 6.52081 7.05107 4.48312 7.939 2.5997C6.60161 3.00009 5.40929 3.78028 4.50691 4.84547C3.60453 5.91065 3.03093 7.21499 2.8558 8.6V8.6ZM8.2279 8.6H11.7721C11.6423 6.46754 11.0368 4.39118 10 2.5232C8.96291 4.3911 8.3571 6.46747 8.227 8.6H8.2279ZM12.061 2.5997C12.9489 4.48312 13.4633 6.52081 13.5757 8.6H17.1442C16.9691 7.21499 16.3955 5.91065 15.4931 4.84547C14.5907 3.78028 13.3984 3.00009 12.061 2.5997V2.5997Z" fill="white"/>
</svg>
