<svg width="216" height="27" viewBox="0 0 216 27" fill="none" xmlns="http://www.w3.org/2000/svg">
<g clip-path="url(#clip0)">
<path d="M13.0575 4.1802L20.5203 8.38149C20.6233 8.44083 20.7408 8.47214 20.8605 8.47214C20.9801 8.47214 21.0976 8.44083 21.2007 8.38149L23.3607 7.1638C23.4626 7.10508 23.547 7.02144 23.6056 6.92114C23.6643 6.82084 23.6951 6.70735 23.6951 6.59185C23.6951 6.47636 23.6643 6.36286 23.6056 6.26256C23.547 6.16226 23.4626 6.07863 23.3607 6.01991L13.1007 0.221394C12.8171 0.0673744 12.4962 -0.0091124 12.1719 -4.31511e-06V3.94299C12.4834 3.94367 12.7892 4.02556 13.0575 4.1802V4.1802Z" fill="white"/>
<path d="M3.69336 8.75576C3.84797 8.47135 4.08202 8.23556 4.36836 8.07576L11.2804 4.18021C11.5503 4.0249 11.858 3.943 12.1714 3.943V4.26413e-06C11.8562 -0.000681007 11.5466 0.0812408 11.275 0.237216L0.885363 6.14116C0.608282 6.298 0.380453 6.52587 0.226562 6.80008L3.69336 8.75576Z" fill="white"/>
<path d="M3.6936 8.75573C3.55096 9.00738 3.47661 9.29046 3.4776 9.57807V17.3955C3.47925 17.6868 3.55535 17.9731 3.699 18.2284C3.71127 18.2558 3.72571 18.2822 3.7422 18.3075L0.2646 20.2421C0.092846 19.9693 0.00130425 19.6556 0 19.3354V7.64347C5.80334e-05 7.34797 0.0781728 7.05748 0.2268 6.80005L3.6936 8.75573Z" fill="white"/>
<path d="M3.74322 18.2812C3.89663 18.5287 4.11225 18.7337 4.36963 18.8769L11.2816 22.7725C11.553 22.9238 11.8601 23.0038 12.1726 23.0044V27.0001C11.8558 27.0002 11.5447 26.9184 11.2708 26.7629L0.881225 20.8379C0.629339 20.6913 0.418 20.4868 0.265625 20.2422L3.74322 18.2812Z" fill="white"/>
<path d="M20.5959 18.2812C20.4455 18.5273 20.2337 18.7323 19.9803 18.8769L13.0575 22.7725C12.7878 22.9232 12.4826 23.0031 12.1719 23.0044V27.0001C12.4869 26.9995 12.7961 26.9177 13.0683 26.7629L23.4579 20.8379C23.7109 20.6927 23.9225 20.4879 24.0735 20.2422L20.5959 18.2812Z" fill="white"/>
<path d="M20.5938 18.2812L24.0713 20.2422C24.2431 19.9694 24.3346 19.6557 24.3359 19.3355V10.2845C24.3367 10.1862 24.3106 10.0894 24.2603 10.0041C24.21 9.91889 24.1373 9.84828 24.0497 9.79956L20.5938 15.6402C20.6744 15.6869 20.7411 15.7532 20.7875 15.8327C20.8339 15.9122 20.8583 16.0021 20.8584 16.0936V17.3956C20.8523 17.7085 20.761 18.0142 20.5938 18.2812Z" fill="white"/>
<path d="M23.4744 9.79937L12.777 15.814C12.5887 15.9207 12.4332 16.0749 12.3268 16.2603C12.2204 16.4458 12.167 16.6558 12.1722 16.8683V19.1297C12.1715 19.2287 12.1977 19.326 12.2481 19.4119C12.2985 19.4977 12.3714 19.5689 12.4593 19.6183C12.5472 19.6676 12.6469 19.6932 12.7482 19.6926C12.8496 19.692 12.949 19.6651 13.0362 19.6147L20.0562 15.6506C20.1383 15.6043 20.2314 15.58 20.3262 15.58C20.421 15.58 20.5141 15.6043 20.5962 15.6506L24.0522 9.80992C23.9657 9.75775 23.8665 9.72925 23.7648 9.72739C23.6632 9.72554 23.5629 9.7504 23.4744 9.79937V9.79937Z" fill="white"/>
<path d="M57.3033 9.2459C57.3386 9.10573 57.4235 8.98228 57.5431 8.89738C57.6627 8.81248 57.8092 8.77162 57.9567 8.78201H58.8585C59.0068 8.77032 59.1546 8.81058 59.2753 8.89558C59.3961 8.98058 59.4818 9.10477 59.5173 9.2459L62.6385 17.9226C62.7843 18.3232 62.6007 18.5868 62.1633 18.5868H61.5207C61.3725 18.5974 61.2253 18.5567 61.1048 18.4719C60.9843 18.3871 60.8983 18.2635 60.8619 18.1229L60.1545 16.0934H56.6499L55.9587 18.1124C55.9277 18.2574 55.8438 18.3865 55.7226 18.4757C55.6015 18.5649 55.4512 18.6081 55.2999 18.5973H54.6573C54.2199 18.5973 54.0363 18.3338 54.1821 17.9331L57.3033 9.2459ZM59.7117 14.6016L58.8207 11.9923C58.6533 11.4651 58.4319 10.4794 58.4319 10.4794C58.4319 10.4794 58.1997 11.4441 58.0431 11.9923L57.1413 14.6016H59.7117Z" fill="white"/>
<path d="M49.6485 16.5628V13.8216C49.6558 13.7453 49.646 13.6684 49.6197 13.5961C49.5934 13.5239 49.5512 13.4582 49.4962 13.4035C49.4412 13.3488 49.3746 13.3064 49.3012 13.2794C49.2277 13.2524 49.149 13.2414 49.0707 13.2471H47.0673C46.9882 13.2397 46.9083 13.2496 46.8335 13.2758C46.7587 13.3021 46.6907 13.3442 46.6345 13.3991C46.5783 13.454 46.5351 13.5203 46.5082 13.5934C46.4813 13.6664 46.4712 13.7444 46.4787 13.8216V14.1959C46.4816 14.3465 46.5448 14.4899 46.6549 14.5954C46.765 14.7009 46.9131 14.76 47.0673 14.7599H48.0285V15.9724C45.6039 17.9702 42.2289 16.6418 42.1533 13.5633C42.1047 11.6815 43.3143 10.0684 45.5445 10.0684C46.3311 10.0651 47.1031 10.275 47.7747 10.6746C48.1257 10.8697 48.3795 10.8433 48.5901 10.527L48.8439 10.137C48.8953 10.0789 48.9331 10.0105 48.9547 9.93671C48.9762 9.86289 48.981 9.78536 48.9686 9.70956C48.9563 9.63375 48.9271 9.56149 48.8832 9.49783C48.8393 9.43416 48.7817 9.38063 48.7143 9.34097C47.7449 8.74526 46.6197 8.43589 45.4743 8.45011C44.7878 8.4393 44.106 8.56387 43.4699 8.81635C42.8338 9.06883 42.2565 9.44403 41.7725 9.91949C41.2884 10.3949 40.9077 10.9609 40.653 11.5834C40.3983 12.2059 40.275 12.8721 40.2903 13.5423C40.2903 18.6133 46.3059 19.9997 49.4055 16.9739C49.6809 16.7156 49.6485 16.7473 49.6485 16.5628V16.5628Z" fill="white"/>
<path d="M74.0744 10.1263H71.3744C71.2953 10.1343 71.2153 10.1252 71.1402 10.0996C71.0652 10.074 70.9968 10.0325 70.9401 9.97812C70.8833 9.92373 70.8396 9.85778 70.812 9.78498C70.7844 9.71217 70.7736 9.63431 70.7804 9.55696V9.17215C70.7719 9.09397 70.7814 9.01492 70.8082 8.9408C70.8351 8.86667 70.8786 8.79935 70.9355 8.74375C70.9925 8.68816 71.0614 8.6457 71.1374 8.6195C71.2133 8.59329 71.2943 8.584 71.3744 8.5923H78.5672C78.6464 8.58567 78.7262 8.59621 78.8007 8.62316C78.8753 8.65011 78.9429 8.69281 78.9986 8.74821C79.0543 8.8036 79.0968 8.87033 79.123 8.94361C79.1493 9.0169 79.1586 9.09494 79.1504 9.17215V9.55696C79.1569 9.63334 79.1463 9.7102 79.1193 9.78218C79.0924 9.85416 79.0496 9.91952 78.9941 9.97372C78.9386 10.0279 78.8716 10.0696 78.7979 10.096C78.7241 10.1223 78.6454 10.1327 78.5672 10.1263H75.8672V17.7856C75.8767 17.8647 75.8677 17.9448 75.841 18.0201C75.8142 18.0953 75.7704 18.1636 75.7127 18.2199C75.655 18.2762 75.585 18.3191 75.508 18.3452C75.4309 18.3713 75.3488 18.38 75.2678 18.3707H74.636C74.5562 18.3775 74.4759 18.3668 74.4009 18.3396C74.3259 18.3123 74.258 18.2691 74.2022 18.2131C74.1464 18.1571 74.104 18.0897 74.0782 18.0158C74.0523 17.9418 74.0437 17.8632 74.0528 17.7856L74.0744 10.1263Z" fill="white"/>
<path d="M83.8389 9.17215C83.8305 9.09446 83.84 9.01592 83.8665 8.94221C83.893 8.86851 83.936 8.80149 83.9924 8.746C84.0487 8.6905 84.117 8.64792 84.1922 8.62134C84.2675 8.59476 84.3478 8.58484 84.4275 8.5923H89.2335C89.3136 8.584 89.3946 8.59329 89.4705 8.6195C89.5464 8.6457 89.6154 8.68816 89.6724 8.74375C89.7293 8.79935 89.7728 8.86667 89.7996 8.9408C89.8265 9.01492 89.836 9.09397 89.8275 9.17215V9.55696C89.8343 9.63431 89.8235 9.71217 89.7959 9.78498C89.7683 9.85778 89.7245 9.92373 89.6678 9.97812C89.611 10.0325 89.5427 10.074 89.4676 10.0996C89.3925 10.1252 89.3126 10.1343 89.2335 10.1263H85.6425V12.6934H88.4289C88.5084 12.6845 88.589 12.693 88.6647 12.7183C88.7405 12.7435 88.8095 12.7849 88.8669 12.8393C88.9243 12.8938 88.9685 12.9601 88.9964 13.0333C89.0243 13.1065 89.0352 13.1849 89.0283 13.2627V13.6423C89.0369 13.721 89.0273 13.8005 89.0002 13.8751C88.9731 13.9496 88.9291 14.0173 88.8715 14.073C88.8139 14.1287 88.7442 14.171 88.6676 14.1968C88.591 14.2226 88.5094 14.2313 88.4289 14.2221H85.6425V16.8578H89.4657C89.5448 16.8498 89.6247 16.8589 89.6998 16.8845C89.7749 16.9101 89.8432 16.9516 89.9 17.006C89.9567 17.0604 90.0005 17.1263 90.0281 17.1991C90.0557 17.2719 90.0665 17.3498 90.0597 17.4271V17.8119C90.0682 17.8901 90.0587 17.9692 90.0318 18.0433C90.005 18.1174 89.9615 18.1848 89.9046 18.2403C89.8476 18.2959 89.7786 18.3384 89.7027 18.3646C89.6268 18.3908 89.5458 18.4001 89.4657 18.3918H84.4167C84.3379 18.3976 84.2587 18.3865 84.1848 18.3591C84.1109 18.3318 84.0441 18.289 83.989 18.2337C83.9339 18.1784 83.8919 18.112 83.8659 18.0391C83.84 17.9662 83.8308 17.8887 83.8389 17.8119V9.17215Z" fill="white"/>
<path d="M99.3619 8.4342C100.529 8.41825 101.673 8.75722 102.634 9.40413C102.7 9.44512 102.757 9.49965 102.799 9.56395C102.841 9.62825 102.869 9.70078 102.88 9.77651C102.89 9.85223 102.884 9.92934 102.861 10.0025C102.839 10.0756 102.8 10.1431 102.748 10.2001L102.488 10.606C102.294 10.9276 102.029 10.9486 101.689 10.7483C101.022 10.3131 100.24 10.0735 99.4375 10.0578C97.2451 10.0578 96.0787 11.6128 96.0787 13.4209C96.0787 15.229 97.2937 16.9158 99.4483 16.9158C100.34 16.8913 101.201 16.5904 101.905 16.0566C101.959 15.9982 102.027 15.9532 102.102 15.9255C102.177 15.8979 102.258 15.8883 102.338 15.8976C102.418 15.9069 102.495 15.9348 102.561 15.979C102.628 16.0232 102.682 16.0823 102.721 16.1515L103.002 16.5205C103.055 16.5758 103.096 16.6417 103.12 16.7138C103.145 16.7858 103.154 16.8623 103.146 16.9379C103.138 17.0135 103.113 17.0865 103.073 17.1518C103.033 17.2172 102.979 17.2733 102.915 17.3165C101.913 18.1072 100.661 18.5355 99.3727 18.5289C96.2353 18.5289 94.2049 16.3096 94.2049 13.4315C94.1868 12.7673 94.3081 12.1065 94.5614 11.4898C94.8147 10.8731 95.1945 10.3134 95.6776 9.84536C96.1606 9.37727 96.7367 9.01061 97.3703 8.76793C98.0039 8.52524 98.6816 8.41167 99.3619 8.4342V8.4342Z" fill="white"/>
<path d="M108.405 9.17227C108.396 9.09409 108.406 9.01504 108.433 8.94091C108.46 8.86679 108.503 8.79946 108.56 8.74387C108.617 8.68827 108.686 8.64582 108.762 8.61961C108.838 8.59341 108.919 8.58412 108.999 8.59242H109.62C109.699 8.58579 109.779 8.59633 109.853 8.62328C109.928 8.65023 109.996 8.69293 110.051 8.74832C110.107 8.80372 110.15 8.87044 110.176 8.94373C110.202 9.01702 110.211 9.09506 110.203 9.17227V12.741H114.793V9.17227C114.785 9.09409 114.794 9.01504 114.821 8.94091C114.848 8.86679 114.891 8.79946 114.948 8.74387C115.005 8.68827 115.074 8.64582 115.15 8.61961C115.226 8.59341 115.307 8.58412 115.387 8.59242H116.019C116.101 8.57972 116.185 8.58573 116.264 8.60997C116.344 8.6342 116.416 8.67602 116.477 8.73214C116.537 8.78827 116.583 8.85719 116.611 8.93354C116.639 9.00988 116.649 9.09158 116.64 9.17227V17.7857C116.649 17.8638 116.64 17.9429 116.614 18.0173C116.588 18.0917 116.545 18.1594 116.489 18.2155C116.432 18.2716 116.364 18.3147 116.288 18.3415C116.212 18.3684 116.131 18.3784 116.051 18.3708H115.398C115.317 18.3793 115.236 18.3699 115.159 18.3434C115.083 18.3169 115.014 18.274 114.957 18.2178C114.9 18.1615 114.856 18.0935 114.83 18.0187C114.803 17.9439 114.794 17.8643 114.804 17.7857V14.2592H110.214V17.7857C110.223 17.8643 110.214 17.9439 110.188 18.0187C110.161 18.0935 110.118 18.1615 110.061 18.2178C110.004 18.274 109.935 18.3169 109.858 18.3434C109.782 18.3699 109.7 18.3793 109.62 18.3708H108.972C108.893 18.3768 108.813 18.3655 108.739 18.3379C108.664 18.3103 108.597 18.267 108.542 18.2111C108.487 18.1552 108.445 18.0881 108.419 18.0145C108.394 17.941 108.385 17.8629 108.394 17.7857L108.405 9.17227Z" fill="white"/>
<path d="M122.649 9.17226C122.641 9.09505 122.65 9.01701 122.676 8.94372C122.702 8.87043 122.745 8.80371 122.801 8.74831C122.856 8.69292 122.924 8.65022 122.999 8.62327C123.073 8.59632 123.153 8.58578 123.232 8.59241H123.999C124.142 8.57845 124.287 8.60725 124.413 8.67501C124.539 8.74277 124.642 8.8463 124.706 8.97195L128.26 14.2433C128.638 14.8285 129.086 15.7562 129.086 15.7562C129.086 15.7562 128.989 14.8179 128.989 14.2433V9.17226C128.98 9.09408 128.99 9.01503 129.016 8.9409C129.043 8.86678 129.087 8.79945 129.144 8.74386C129.201 8.68826 129.27 8.64581 129.346 8.6196C129.421 8.5934 129.502 8.58411 129.583 8.59241H130.214C130.295 8.58325 130.376 8.59191 130.453 8.61773C130.53 8.64355 130.599 8.68588 130.657 8.74158C130.714 8.79728 130.758 8.86491 130.786 8.93947C130.813 9.01402 130.822 9.09359 130.814 9.17226V17.7857C130.823 17.8648 130.814 17.9449 130.788 18.0202C130.761 18.0954 130.717 18.1637 130.659 18.22C130.602 18.2763 130.532 18.3192 130.455 18.3453C130.377 18.3714 130.295 18.3801 130.214 18.3708H129.448C129.307 18.3794 129.167 18.3482 129.044 18.2808C128.922 18.2135 128.822 18.1129 128.756 17.9913L125.192 12.7515C124.825 12.1664 124.361 11.2439 124.361 11.2439C124.361 11.2439 124.458 12.1822 124.458 12.7515V17.8015C124.466 17.8787 124.457 17.9568 124.431 18.03C124.404 18.1033 124.362 18.1701 124.306 18.2255C124.25 18.2809 124.183 18.3235 124.108 18.3505C124.034 18.3775 123.954 18.388 123.875 18.3814H123.227C123.147 18.388 123.068 18.3775 122.993 18.3505C122.919 18.3235 122.851 18.2809 122.795 18.2255C122.74 18.1701 122.697 18.1033 122.671 18.03C122.645 17.9568 122.635 17.8787 122.644 17.8015L122.649 9.17226Z" fill="white"/>
<path d="M141.233 8.4341C141.912 8.41104 142.589 8.52342 143.223 8.76438C143.856 9.00534 144.432 9.36981 144.916 9.83554C145.401 10.3013 145.782 10.8585 146.039 11.4731C146.295 12.0877 146.42 12.7469 146.406 13.4103C146.429 14.0868 146.311 14.7609 146.062 15.3923C145.812 16.0238 145.435 16.5998 144.952 17.0861C144.47 17.5725 143.892 17.9591 143.254 18.2232C142.615 18.4873 141.929 18.6234 141.236 18.6234C140.542 18.6234 139.856 18.4873 139.217 18.2232C138.579 17.9591 138.001 17.5725 137.519 17.0861C137.037 16.5998 136.659 16.0238 136.41 15.3923C136.16 14.7609 136.043 14.0868 136.065 13.4103C136.052 12.7475 136.178 12.0892 136.434 11.4753C136.69 10.8613 137.071 10.3047 137.555 9.83921C138.038 9.37371 138.614 9.00909 139.246 8.76753C139.878 8.52598 140.554 8.41253 141.233 8.4341V8.4341ZM141.233 16.9157C143.155 16.9157 144.532 15.4029 144.532 13.4208C144.55 12.9872 144.478 12.5546 144.321 12.1488C144.163 11.7431 143.923 11.3726 143.615 11.0596C143.308 10.7466 142.938 10.4976 142.529 10.3275C142.12 10.1574 141.68 10.0697 141.236 10.0697C140.791 10.0697 140.351 10.1574 139.942 10.3275C139.533 10.4976 139.164 10.7466 138.856 11.0596C138.548 11.3726 138.308 11.7431 138.151 12.1488C137.993 12.5546 137.921 12.9872 137.939 13.4208C137.939 15.3976 139.321 16.9105 141.233 16.9105V16.9157Z" fill="white"/>
<path d="M151.832 9.17211C151.823 9.09489 151.833 9.01686 151.859 8.94357C151.885 8.87028 151.928 8.80356 151.983 8.74816C152.039 8.69277 152.107 8.65007 152.181 8.62312C152.256 8.59617 152.336 8.58563 152.415 8.59226H153.063C153.142 8.58563 153.222 8.59617 153.296 8.62312C153.371 8.65007 153.439 8.69277 153.494 8.74816C153.55 8.80356 153.592 8.87028 153.619 8.94357C153.645 9.01686 153.654 9.09489 153.646 9.17211V16.8367H157.383C157.462 16.8286 157.542 16.8378 157.617 16.8634C157.692 16.889 157.76 16.9305 157.817 16.9848C157.874 17.0392 157.918 17.1052 157.945 17.178C157.973 17.2508 157.984 17.3287 157.977 17.406V17.7855C157.986 17.8641 157.977 17.9438 157.951 18.0186C157.924 18.0934 157.881 18.1614 157.824 18.2176C157.767 18.2738 157.698 18.3167 157.621 18.3432C157.545 18.3697 157.463 18.3791 157.383 18.3707H152.415C152.335 18.3774 152.255 18.3668 152.18 18.3395C152.105 18.3123 152.037 18.2691 151.981 18.2131C151.925 18.1571 151.883 18.0897 151.857 18.0157C151.831 17.9418 151.823 17.8632 151.832 17.7855V9.17211Z" fill="white"/>
<path d="M166.655 8.4341C167.334 8.41104 168.011 8.52342 168.644 8.76438C169.278 9.00534 169.854 9.36981 170.338 9.83554C170.822 10.3013 171.204 10.8585 171.46 11.4731C171.716 12.0877 171.841 12.7469 171.828 13.4103C171.828 14.7496 171.283 16.0341 170.313 16.9812C169.342 17.9282 168.027 18.4603 166.655 18.4603C165.283 18.4603 163.967 17.9282 162.997 16.9812C162.027 16.0341 161.481 14.7496 161.481 13.4103C161.468 12.7469 161.593 12.0877 161.849 11.4731C162.105 10.8585 162.487 10.3013 162.971 9.83554C163.455 9.36981 164.032 9.00534 164.665 8.76438C165.298 8.52342 165.975 8.41104 166.655 8.4341V8.4341ZM166.655 16.9157C168.577 16.9157 169.954 15.4029 169.954 13.4208C169.98 12.9824 169.914 12.5434 169.759 12.1308C169.605 11.7182 169.366 11.3407 169.057 11.0214C168.748 10.7021 168.376 10.4478 167.963 10.2739C167.55 10.1001 167.105 10.0104 166.655 10.0104C166.205 10.0104 165.76 10.1001 165.346 10.2739C164.933 10.4478 164.561 10.7021 164.252 11.0214C163.943 11.3407 163.704 11.7182 163.55 12.1308C163.396 12.5434 163.33 12.9824 163.355 13.4208C163.355 15.3976 164.732 16.9105 166.655 16.9105V16.9157Z" fill="white"/>
<path d="M190.699 9.17211C190.691 9.09489 190.7 9.01686 190.726 8.94357C190.752 8.87028 190.795 8.80356 190.851 8.74816C190.906 8.69277 190.974 8.65007 191.048 8.62312C191.123 8.59617 191.203 8.58563 191.282 8.59226H191.93C192.009 8.58563 192.089 8.59617 192.164 8.62312C192.238 8.65007 192.306 8.69277 192.361 8.74816C192.417 8.80356 192.46 8.87028 192.486 8.94357C192.512 9.01686 192.521 9.09489 192.513 9.17211V17.7855C192.522 17.8632 192.514 17.9418 192.488 18.0157C192.462 18.0897 192.42 18.1571 192.364 18.2131C192.308 18.2691 192.24 18.3123 192.165 18.3395C192.09 18.3668 192.01 18.3774 191.93 18.3707H191.282C191.202 18.3774 191.122 18.3668 191.047 18.3395C190.972 18.3123 190.904 18.2691 190.848 18.2131C190.792 18.1571 190.75 18.0897 190.724 18.0157C190.698 17.9418 190.69 17.8632 190.699 17.7855V9.17211Z" fill="white"/>
<path d="M198.382 9.17226C198.374 9.09505 198.383 9.01701 198.409 8.94372C198.435 8.87043 198.478 8.80371 198.534 8.74831C198.589 8.69292 198.657 8.65022 198.731 8.62327C198.806 8.59632 198.886 8.58578 198.965 8.59241H203.782C203.862 8.58325 203.944 8.59191 204.021 8.61773C204.097 8.64355 204.167 8.68588 204.224 8.74158C204.282 8.79728 204.326 8.86491 204.353 8.93947C204.38 9.01402 204.39 9.09359 204.381 9.17226V9.55707C204.388 9.63491 204.377 9.71328 204.349 9.78651C204.321 9.85973 204.277 9.92599 204.22 9.98048C204.162 10.035 204.093 10.0763 204.018 10.1016C203.942 10.1268 203.861 10.1353 203.782 10.1264H200.196V12.6935H202.983C203.062 12.6855 203.142 12.6946 203.217 12.7202C203.292 12.7458 203.36 12.7873 203.417 12.8417C203.474 12.8961 203.517 12.962 203.545 13.0348C203.573 13.1076 203.583 13.1855 203.577 13.2628V13.6424C203.585 13.7206 203.576 13.7996 203.549 13.8737C203.522 13.9479 203.478 14.0152 203.421 14.0708C203.365 14.1264 203.296 14.1688 203.22 14.195C203.144 14.2212 203.063 14.2305 202.983 14.2222H200.196V16.8579H204.014C204.091 16.8496 204.168 16.8574 204.242 16.8809C204.315 16.9043 204.382 16.9428 204.439 16.9937C204.496 17.0446 204.541 17.1069 204.571 17.1762C204.601 17.2455 204.615 17.3203 204.613 17.3956V17.7804C204.622 17.8591 204.612 17.9387 204.585 18.0132C204.558 18.0878 204.514 18.1554 204.457 18.2111C204.399 18.2668 204.329 18.3091 204.253 18.3349C204.176 18.3608 204.095 18.3694 204.014 18.3603H198.965C198.886 18.3669 198.806 18.3564 198.731 18.3294C198.657 18.3025 198.589 18.2598 198.534 18.2044C198.478 18.149 198.435 18.0822 198.409 18.009C198.383 17.9357 198.374 17.8576 198.382 17.7804V9.17226Z" fill="white"/>
<path d="M209.521 16.742L209.828 16.3045C210.061 16.004 210.287 15.9829 210.644 16.1833C211.227 16.6236 211.937 16.8727 212.674 16.8949C213.598 16.8949 214.17 16.4468 214.17 15.7774C214.17 13.9271 209.51 14.3066 209.51 11.2651C209.51 9.54132 210.973 8.42906 212.879 8.42906C213.796 8.42301 214.694 8.68159 215.46 9.17232C215.527 9.21056 215.585 9.26168 215.631 9.32257C215.676 9.38345 215.709 9.4528 215.726 9.52636C215.743 9.59991 215.745 9.67613 215.731 9.75031C215.717 9.8245 215.687 9.89509 215.644 9.95776L215.39 10.4111C215.18 10.8117 214.877 10.7537 214.586 10.6009C214.069 10.2684 213.466 10.0856 212.847 10.0737C211.918 10.0737 211.324 10.5113 211.324 11.1754C211.324 13.0046 215.984 12.5407 215.984 15.6561C215.984 17.2375 214.769 18.5396 212.674 18.5396C211.568 18.5293 210.493 18.1849 209.596 17.5538C209.53 17.51 209.475 17.4525 209.434 17.3853C209.394 17.3181 209.369 17.243 209.362 17.1654C209.354 17.0877 209.365 17.0095 209.392 16.9363C209.42 16.8631 209.464 16.7967 209.521 16.742V16.742Z" fill="white"/>
<path d="M185.664 16.5627V13.8216C185.671 13.7453 185.661 13.6683 185.635 13.5961C185.609 13.5239 185.567 13.4581 185.512 13.4034C185.457 13.3487 185.39 13.3064 185.317 13.2794C185.243 13.2524 185.165 13.2413 185.086 13.247H183.088C183.009 13.2388 182.928 13.2481 182.853 13.274C182.777 13.2999 182.709 13.3418 182.652 13.3968C182.595 13.4518 182.551 13.5185 182.524 13.5919C182.497 13.6654 182.487 13.7438 182.494 13.8216V14.1959C182.494 14.2718 182.51 14.3469 182.54 14.417C182.569 14.487 182.613 14.5506 182.669 14.604C182.724 14.6575 182.789 14.6997 182.861 14.7282C182.933 14.7568 183.011 14.7711 183.088 14.7704H184.044V15.9829C181.625 17.9807 178.25 16.6523 178.169 13.5738C178.126 11.692 179.33 10.0789 181.565 10.0789C182.35 10.0763 183.12 10.2862 183.79 10.6851C184.141 10.8802 184.395 10.8538 184.606 10.5375L184.859 10.1474C184.911 10.0897 184.949 10.0217 184.971 9.94808C184.993 9.87449 184.998 9.7971 184.987 9.72132C184.975 9.64555 184.946 9.5732 184.903 9.50932C184.859 9.44544 184.802 9.39157 184.735 9.35147C183.766 8.75576 182.641 8.44638 181.495 8.46061C180.808 8.44982 180.126 8.57437 179.49 8.82679C178.854 9.07921 178.276 9.45433 177.792 9.9297C177.307 10.4051 176.926 10.9709 176.671 11.5935C176.415 12.216 176.291 12.8824 176.306 13.5528C176.306 18.6238 182.327 20.0102 185.426 16.9844C185.691 16.7156 185.664 16.7472 185.664 16.5627V16.5627Z" fill="white"/>
</g>
<defs>
<clipPath id="clip0">
<rect width="216" height="27" fill="white"/>
</clipPath>
</defs>
</svg>
